<svg width="333" height="154" viewBox="0 0 333 154" fill="none" xmlns="http://www.w3.org/2000/svg">
<path fill-rule="evenodd" clip-rule="evenodd" d="M111.996 0H332.416C332.692 0 332.916 0.223858 332.916 0.5V24.4859C332.916 24.7286 332.739 24.9367 332.5 24.9789C295.291 31.5499 267.22 38.2695 238.791 56.4525C219.5 68.7905 204.5 87.5 204.5 101.5C204.5 119.509 219.482 130.766 254.297 128.439C254.587 128.42 254.841 128.648 254.841 128.938V152.807C254.841 153.083 254.617 153.307 254.341 153.307H90.4111C90.1349 153.307 89.9111 153.083 89.9111 152.807V128.928C89.9111 128.642 90.1601 128.415 90.4461 128.429C124.537 130.135 136.397 125.508 139.169 103.496C139.63 87.0664 133.418 80.103 111.817 71.5232C111.627 71.4474 111.496 71.261 111.496 71.0557V0.499998C111.496 0.223856 111.72 0 111.996 0ZM102.141 16.6037C102.417 16.6037 102.641 16.8275 102.641 17.1037V68.5319C102.641 68.8602 102.319 69.0966 102.002 69.0122C37.7256 51.9149 11.9031 40.8591 0.0535732 17.3227C-0.112486 16.9929 0.127631 16.6037 0.496913 16.6037H102.141Z" fill="#C0392B"/>
</svg>
