<svg width="725" height="382" viewBox="0 0 725 382" fill="none" xmlns="http://www.w3.org/2000/svg">
<path fill-rule="evenodd" clip-rule="evenodd" d="M277.234 179H569.425C569.701 179 569.925 179.224 569.925 179.5V211.559C569.925 211.801 569.748 212.01 569.509 212.052C520.172 220.76 482.969 229.652 445.29 253.751C419.747 270.088 399.885 294.862 399.885 313.4C399.885 337.277 419.774 352.19 465.999 349.059C466.288 349.04 466.543 349.268 466.543 349.558V381.5C466.543 381.776 466.319 382 466.043 382H248.653C248.377 382 248.153 381.776 248.153 381.5V349.548C248.153 349.262 248.403 349.035 248.689 349.049C293.963 351.332 309.703 345.227 313.377 316.043C313.988 294.262 305.743 285.045 277.056 273.665C276.865 273.59 276.734 273.403 276.734 273.198V179.5C276.734 179.224 276.958 179 277.234 179ZM264.509 200.986C264.785 200.986 265.009 201.209 265.009 201.486V269.956C265.009 270.285 264.687 270.521 264.37 270.437C178.897 247.71 144.703 233.056 129.053 201.706C128.888 201.375 129.128 200.986 129.497 200.986H264.509Z" fill="#C0392B"/>
<path d="M7.344 35.592H43.488C49.92 35.592 55.824 36.504 61.2 38.328C66.576 40.056 70.896 43.032 74.16 47.256C77.424 51.384 79.056 57.096 79.056 64.392C79.056 68.424 78 72.312 75.888 76.056C73.776 79.8 70.992 83.016 67.536 85.704C64.176 88.296 60.528 90.072 56.592 91.032L88.848 141H66.384L37.152 94.056H29.232V141H9.504V44.376L7.344 35.592ZM29.232 49.992V79.944H38.448C42.192 79.944 45.552 79.512 48.528 78.648C51.504 77.688 53.856 76.056 55.584 73.752C57.312 71.448 58.176 68.28 58.176 64.248C58.176 61.08 57.408 58.44 55.872 56.328C54.336 54.216 52.32 52.632 49.824 51.576C47.328 50.52 44.592 49.992 41.616 49.992H29.232ZM98.3261 35.592H164.566V49.848H120.214V79.656H154.198V93.912H120.214V126.744H164.566V141H100.486V44.376L98.3261 35.592ZM273.549 88.44C273.549 98.616 271.485 107.688 267.357 115.656C263.229 123.528 257.325 129.72 249.645 134.232C242.061 138.744 233.085 141 222.717 141H185.277V44.376C185.277 44.28 185.085 43.56 184.701 42.216C184.413 40.872 184.077 39.48 183.693 38.04C183.309 36.6 183.069 35.784 182.973 35.592H222.861C230.925 35.592 238.077 36.888 244.317 39.48C250.557 41.976 255.837 45.576 260.157 50.28C264.573 54.984 267.885 60.552 270.093 66.984C272.397 73.416 273.549 80.568 273.549 88.44ZM252.237 89.016C252.237 84.12 251.661 79.368 250.509 74.76C249.453 70.056 247.677 65.832 245.181 62.088C242.781 58.344 239.613 55.368 235.677 53.16C231.837 50.952 227.133 49.848 221.565 49.848H205.149V126.744H221.853C229.149 126.744 235.005 124.968 239.421 121.416C243.933 117.768 247.197 113.064 249.213 107.304C251.229 101.544 252.237 95.448 252.237 89.016ZM322.109 33.864C327.485 33.864 332.717 34.632 337.805 36.168C342.989 37.608 347.645 39.72 351.773 42.504L341.837 54.888C339.245 52.584 336.125 50.808 332.477 49.56C328.829 48.312 325.325 47.688 321.965 47.688C318.221 47.688 314.813 48.696 311.741 50.712C308.669 52.632 307.133 55.656 307.133 59.784C307.133 62.568 307.805 64.968 309.149 66.984C310.589 69 312.461 70.776 314.765 72.312C317.165 73.752 319.805 75.192 322.685 76.632C326.045 78.264 329.501 79.944 333.053 81.672C336.701 83.4 340.061 85.512 343.133 88.008C346.205 90.408 348.701 93.384 350.621 96.936C352.541 100.488 353.501 104.856 353.501 110.04C353.501 117.048 351.773 123 348.317 127.896C344.861 132.792 340.301 136.488 334.637 138.984C329.069 141.48 323.021 142.728 316.493 142.728C310.637 142.728 304.781 142.104 298.925 140.856C293.165 139.512 287.741 137.352 282.653 134.376L289.421 118.392C292.781 121.464 296.669 124.008 301.085 126.024C305.501 127.944 310.013 128.904 314.621 128.904C317.693 128.904 320.573 128.328 323.261 127.176C325.949 126.024 328.157 124.344 329.885 122.136C331.613 119.832 332.477 117 332.477 113.64C332.477 110.184 331.517 107.352 329.597 105.144C327.677 102.84 325.181 100.824 322.109 99.096C319.037 97.368 315.725 95.688 312.173 94.056C309.005 92.616 305.885 91.08 302.813 89.448C299.741 87.72 296.957 85.752 294.461 83.544C291.965 81.336 289.949 78.648 288.413 75.48C286.877 72.216 286.109 68.376 286.109 63.96C286.109 56.952 287.837 51.24 291.293 46.824C294.749 42.408 299.213 39.144 304.685 37.032C310.157 34.92 315.965 33.864 322.109 33.864ZM397.367 35.592L419.831 96.072C420.887 98.952 421.703 101.832 422.279 104.712C422.855 107.592 423.431 110.52 424.007 113.496C424.775 110.424 425.351 107.544 425.735 104.856C426.215 102.168 426.935 99.432 427.895 96.648L449.927 35.592H475.271V140.856H455.831V69.432C455.831 67.704 455.927 65.976 456.119 64.248C456.311 62.424 456.455 60.696 456.551 59.064C455.975 60.792 455.399 62.52 454.823 64.248C454.343 65.976 453.767 67.704 453.095 69.432L427.319 141H416.663L390.167 69.432C389.495 67.704 388.871 65.976 388.295 64.248C387.815 62.52 387.287 60.792 386.711 59.064C386.807 60.696 386.951 62.424 387.143 64.248C387.335 65.976 387.431 67.704 387.431 69.432V140.856H371.735V44.376L369.719 35.592H397.367ZM495.991 35.592H517.879V141H498.007V44.376C498.007 44.28 497.815 43.56 497.431 42.216C497.143 40.872 496.855 39.48 496.567 38.04C496.279 36.6 496.087 35.784 495.991 35.592ZM563.898 49.848H534.666V35.592H614.154V49.848H584.49V141H563.898V49.848ZM695.532 93.912H651.324V141H631.452V44.376C631.452 44.28 631.26 43.56 630.876 42.216C630.588 40.872 630.3 39.48 630.012 38.04C629.724 36.6 629.532 35.784 629.436 35.592H651.324V79.656H695.532V35.592H715.404V141H695.532V93.912Z" fill="#C0392B"/>
</svg>
